<svg id="Capa_1" enable-background="new 0 0 52 52" height="52" viewBox="0 0 512 512" width="52" xmlns="http://www.w3.org/2000/svg"><g><path d="m256 270c99.412 0 180-47.01 180-105h-44.15c-27.129 0-56.162 6.914-91.362 21.768-12.774 5.376-28.155 8.232-44.488 8.232s-31.714-2.856-44.487-8.247c-35.2-14.839-64.234-21.753-91.363-21.753h-44.15c0 57.99 80.588 105 180 105z"/><path d="m223.173 159.111c17.959 7.588 47.695 7.573 65.654.015 39.009-16.465 71.748-24.126 103.023-24.126h35.955c-7.273-14.105-18.882-27.112-34.863-38.046 8.054-10.213 13.058-22.937 13.058-36.954 0-33.137-26.863-60-60-60s-60 26.863-60 60c0 .544.145 1.049.159 1.589-9.827-.968-19.859-1.589-30.159-1.589s-20.332.621-30.159 1.589c.014-.54.159-1.045.159-1.589 0-33.137-26.863-60-60-60s-60 26.863-60 60c0 14.017 5.004 26.741 13.059 36.954-15.981 10.933-27.59 23.941-34.863 38.046h35.955c31.274 0 64.013 7.661 103.022 24.111zm122.827-114.111c8.284 0 15 6.716 15 15s-6.716 15-15 15-15-6.716-15-15 6.716-15 15-15zm-180 0c8.284 0 15 6.716 15 15s-6.716 15-15 15-15-6.716-15-15 6.716-15 15-15z"/><path d="m76 512h60v-172.112c-23.996-4.832-45.315-.784-59.355 13.257-20.991 20.991-20.625 58.847.249 96.918-10.328 13.095-15.894 29.033-15.894 45.937 0 8.291 6.709 16 15 16z"/><path d="m435.355 353.145c-14.064-14.064-35.365-18.098-59.355-13.26v172.115h60c8.291 0 15-7.709 15-16 0-16.904-5.566-32.842-15.894-45.938 20.874-38.071 21.241-75.926.249-96.917z"/><path d="m346 315c0-9.018-1.388-17.937-3.662-26.622-26.232 7.427-55.36 11.622-86.338 11.622s-60.106-4.195-86.338-11.622c-2.274 8.685-3.662 17.604-3.662 26.622v197h45v-137c0-8.291 6.709-15 15-15s15 6.709 15 15v137h30v-137c0-8.291 6.709-15 15-15s15 6.709 15 15v137h45z"/></g></svg>